<svg class="marks" width="505" height="339" xmlns="http://www.w3.org/2000/svg"><g transform="translate(46,6)"><g id="g322"><g transform="translate(0,0)"><rect class="background" width="450" height="285" style="pointer-events: none; fill: none;"></rect><g id="g323"><g transform="translate(0,285)"><rect class="background" width="0" height="0" style="pointer-events: none; fill: none;"></rect><g id="g324" style="pointer-events: none;"><line x1="19.59474442714023" y1="-285" x2="19.59474442714023" y2="0" style="fill: none; stroke: rgb(216, 216, 216); stroke-width: 1px; opacity: 1;"></line><line x1="71.89478394272564" y1="-285" x2="71.89478394272564" y2="0" style="fill: none; stroke: rgb(216, 216, 216); stroke-width: 1px; opacity: 1;"></line><line x1="124.19482345831103" y1="-285" x2="124.19482345831103" y2="0" style="fill: none; stroke: rgb(216, 216, 216); stroke-width: 1px; opacity: 1;"></line><line x1="176.49486297389643" y1="-285" x2="176.49486297389643" y2="0" style="fill: none; stroke: rgb(216, 216, 216); stroke-width: 1px; opacity: 1;"></line><line x1="228.79490248948184" y1="-285" x2="228.79490248948184" y2="0" style="fill: none; stroke: rgb(216, 216, 216); stroke-width: 1px; opacity: 1;"></line><line x1="281.09494200506725" y1="-285" x2="281.09494200506725" y2="0" style="fill: none; stroke: rgb(216, 216, 216); stroke-width: 1px; opacity: 1;"></line><line x1="333.39498152065266" y1="-285" x2="333.39498152065266" y2="0" style="fill: none; stroke: rgb(216, 216, 216); stroke-width: 1px; opacity: 1;"></line><line x1="385.6950210362381" y1="-285" x2="385.6950210362381" y2="0" style="fill: none; stroke: rgb(216, 216, 216); stroke-width: 1px; opacity: 1;"></line><line x1="437.9950605518235" y1="-285" x2="437.9950605518235" y2="0" style="fill: none; stroke: rgb(216, 216, 216); stroke-width: 1px; opacity: 1;"></line></g><g id="g325" style="pointer-events: none;"><line x1="19.59474442714023" y1="0" x2="19.59474442714023" y2="6" style="fill: none; stroke: rgb(0, 0, 0); stroke-width: 1px; opacity: 1;"></line><line x1="71.89478394272564" y1="0" x2="71.89478394272564" y2="6" style="fill: none; stroke: rgb(0, 0, 0); stroke-width: 1px; opacity: 1;"></line><line x1="124.19482345831103" y1="0" x2="124.19482345831103" y2="6" style="fill: none; stroke: rgb(0, 0, 0); stroke-width: 1px; opacity: 1;"></line><line x1="176.49486297389643" y1="0" x2="176.49486297389643" y2="6" style="fill: none; stroke: rgb(0, 0, 0); stroke-width: 1px; opacity: 1;"></line><line x1="228.79490248948184" y1="0" x2="228.79490248948184" y2="6" style="fill: none; stroke: rgb(0, 0, 0); stroke-width: 1px; opacity: 1;"></line><line x1="281.09494200506725" y1="0" x2="281.09494200506725" y2="6" style="fill: none; stroke: rgb(0, 0, 0); stroke-width: 1px; opacity: 1;"></line><line x1="333.39498152065266" y1="0" x2="333.39498152065266" y2="6" style="fill: none; stroke: rgb(0, 0, 0); stroke-width: 1px; opacity: 1;"></line><line x1="385.6950210362381" y1="0" x2="385.6950210362381" y2="6" style="fill: none; stroke: rgb(0, 0, 0); stroke-width: 1px; opacity: 1;"></line><line x1="437.9950605518235" y1="0" x2="437.9950605518235" y2="6" style="fill: none; stroke: rgb(0, 0, 0); stroke-width: 1px; opacity: 1;"></line></g><g id="g326" style="pointer-events: none;"></g><g id="g327"><text x="19.59474442714023" y="9" text-anchor="middle" dy=".9em" style="font-style: normal; font-variant: normal; font-weight: normal; font-size: 11px; line-height: normal; font-family: sans-serif; fill: rgb(0, 0, 0); opacity: 1;">1.5</text><text x="71.89478394272564" y="9" text-anchor="middle" dy=".9em" style="font-style: normal; font-variant: normal; font-weight: normal; font-size: 11px; line-height: normal; font-family: sans-serif; fill: rgb(0, 0, 0); opacity: 1;">2.0</text><text x="124.19482345831103" y="9" text-anchor="middle" dy=".9em" style="font-style: normal; font-variant: normal; font-weight: normal; font-size: 11px; line-height: normal; font-family: sans-serif; fill: rgb(0, 0, 0); opacity: 1;">2.5</text><text x="176.49486297389643" y="9" text-anchor="middle" dy=".9em" style="font-style: normal; font-variant: normal; font-weight: normal; font-size: 11px; line-height: normal; font-family: sans-serif; fill: rgb(0, 0, 0); opacity: 1;">3.0</text><text x="228.79490248948184" y="9" text-anchor="middle" dy=".9em" style="font-style: normal; font-variant: normal; font-weight: normal; font-size: 11px; line-height: normal; font-family: sans-serif; fill: rgb(0, 0, 0); opacity: 1;">3.5</text><text x="281.09494200506725" y="9" text-anchor="middle" dy=".9em" style="font-style: normal; font-variant: normal; font-weight: normal; font-size: 11px; line-height: normal; font-family: sans-serif; fill: rgb(0, 0, 0); opacity: 1;">4.0</text><text x="333.39498152065266" y="9" text-anchor="middle" dy=".9em" style="font-style: normal; font-variant: normal; font-weight: normal; font-size: 11px; line-height: normal; font-family: sans-serif; fill: rgb(0, 0, 0); opacity: 1;">4.5</text><text x="385.6950210362381" y="9" text-anchor="middle" dy=".9em" style="font-style: normal; font-variant: normal; font-weight: normal; font-size: 11px; line-height: normal; font-family: sans-serif; fill: rgb(0, 0, 0); opacity: 1;">5.0</text><text x="437.9950605518235" y="9" text-anchor="middle" dy=".9em" style="font-style: normal; font-variant: normal; font-weight: normal; font-size: 11px; line-height: normal; font-family: sans-serif; fill: rgb(0, 0, 0); opacity: 1;">5.5</text></g><g id="g328" style="pointer-events: none;"><path transform="translate(0.5,0.5)" d="M0,6V0H450V6" style="fill: none; stroke: rgb(0, 0, 0); stroke-width: 1px;"></path></g><g id="g329"><text x="225" y="35" text-anchor="middle" dy=".35em" style="font-weight: bold; font-style: normal; font-variant: normal; font-size: 11px; line-height: normal; font-family: sans-serif; fill: rgb(0, 0, 0);">wt</text></g></g></g><g id="g330"><g transform="translate(0,0)"><rect class="background" width="0" height="0" style="pointer-events: none; fill: none;"></rect><g id="g331" style="pointer-events: none;"><line x1="0" y1="276.95551257253385" x2="450" y2="276.95551257253385" style="fill: none; stroke: rgb(216, 216, 216); stroke-width: 1px; opacity: 1;"></line><line x1="0" y1="254.90522243713733" x2="450" y2="254.90522243713733" style="fill: none; stroke: rgb(216, 216, 216); stroke-width: 1px; opacity: 1;"></line><line x1="0" y1="232.8549323017408" x2="450" y2="232.8549323017408" style="fill: none; stroke: rgb(216, 216, 216); stroke-width: 1px; opacity: 1;"></line><line x1="0" y1="210.8046421663443" x2="450" y2="210.8046421663443" style="fill: none; stroke: rgb(216, 216, 216); stroke-width: 1px; opacity: 1;"></line><line x1="0" y1="188.75435203094779" x2="450" y2="188.75435203094779" style="fill: none; stroke: rgb(216, 216, 216); stroke-width: 1px; opacity: 1;"></line><line x1="0" y1="166.70406189555126" x2="450" y2="166.70406189555126" style="fill: none; stroke: rgb(216, 216, 216); stroke-width: 1px; opacity: 1;"></line><line x1="0" y1="144.65377176015474" x2="450" y2="144.65377176015474" style="fill: none; stroke: rgb(216, 216, 216); stroke-width: 1px; opacity: 1;"></line><line x1="0" y1="122.60348162475825" x2="450" y2="122.60348162475825" style="fill: none; stroke: rgb(216, 216, 216); stroke-width: 1px; opacity: 1;"></line><line x1="0" y1="100.55319148936172" x2="450" y2="100.55319148936172" style="fill: none; stroke: rgb(216, 216, 216); stroke-width: 1px; opacity: 1;"></line><line x1="0" y1="78.50290135396523" x2="450" y2="78.50290135396523" style="fill: none; stroke: rgb(216, 216, 216); stroke-width: 1px; opacity: 1;"></line><line x1="0" y1="56.452611218568705" x2="450" y2="56.452611218568705" style="fill: none; stroke: rgb(216, 216, 216); stroke-width: 1px; opacity: 1;"></line><line x1="0" y1="34.40232108317218" x2="450" y2="34.40232108317218" style="fill: none; stroke: rgb(216, 216, 216); stroke-width: 1px; opacity: 1;"></line><line x1="0" y1="12.352030947775688" x2="450" y2="12.352030947775688" style="fill: none; stroke: rgb(216, 216, 216); stroke-width: 1px; opacity: 1;"></line></g><g id="g332" style="pointer-events: none;"><line x1="-6" y1="276.95551257253385" x2="0" y2="276.95551257253385" style="fill: none; stroke: rgb(0, 0, 0); stroke-width: 1px; opacity: 1;"></line><line x1="-6" y1="254.90522243713733" x2="0" y2="254.90522243713733" style="fill: none; stroke: rgb(0, 0, 0); stroke-width: 1px; opacity: 1;"></line><line x1="-6" y1="232.8549323017408" x2="0" y2="232.8549323017408" style="fill: none; stroke: rgb(0, 0, 0); stroke-width: 1px; opacity: 1;"></line><line x1="-6" y1="210.8046421663443" x2="0" y2="210.8046421663443" style="fill: none; stroke: rgb(0, 0, 0); stroke-width: 1px; opacity: 1;"></line><line x1="-6" y1="188.75435203094779" x2="0" y2="188.75435203094779" style="fill: none; stroke: rgb(0, 0, 0); stroke-width: 1px; opacity: 1;"></line><line x1="-6" y1="166.70406189555126" x2="0" y2="166.70406189555126" style="fill: none; stroke: rgb(0, 0, 0); stroke-width: 1px; opacity: 1;"></line><line x1="-6" y1="144.65377176015474" x2="0" y2="144.65377176015474" style="fill: none; stroke: rgb(0, 0, 0); stroke-width: 1px; opacity: 1;"></line><line x1="-6" y1="122.60348162475825" x2="0" y2="122.60348162475825" style="fill: none; stroke: rgb(0, 0, 0); stroke-width: 1px; opacity: 1;"></line><line x1="-6" y1="100.55319148936172" x2="0" y2="100.55319148936172" style="fill: none; stroke: rgb(0, 0, 0); stroke-width: 1px; opacity: 1;"></line><line x1="-6" y1="78.50290135396523" x2="0" y2="78.50290135396523" style="fill: none; stroke: rgb(0, 0, 0); stroke-width: 1px; opacity: 1;"></line><line x1="-6" y1="56.452611218568705" x2="0" y2="56.452611218568705" style="fill: none; stroke: rgb(0, 0, 0); stroke-width: 1px; opacity: 1;"></line><line x1="-6" y1="34.40232108317218" x2="0" y2="34.40232108317218" style="fill: none; stroke: rgb(0, 0, 0); stroke-width: 1px; opacity: 1;"></line><line x1="-6" y1="12.352030947775688" x2="0" y2="12.352030947775688" style="fill: none; stroke: rgb(0, 0, 0); stroke-width: 1px; opacity: 1;"></line></g><g id="g333" style="pointer-events: none;"></g><g id="g334"><text x="-9" y="276.95551257253385" text-anchor="end" dy=".35em" style="font-style: normal; font-variant: normal; font-weight: normal; font-size: 11px; line-height: normal; font-family: sans-serif; fill: rgb(0, 0, 0); opacity: 1;">10</text><text x="-9" y="254.90522243713733" text-anchor="end" dy=".35em" style="font-style: normal; font-variant: normal; font-weight: normal; font-size: 11px; line-height: normal; font-family: sans-serif; fill: rgb(0, 0, 0); opacity: 1;">12</text><text x="-9" y="232.8549323017408" text-anchor="end" dy=".35em" style="font-style: normal; font-variant: normal; font-weight: normal; font-size: 11px; line-height: normal; font-family: sans-serif; fill: rgb(0, 0, 0); opacity: 1;">14</text><text x="-9" y="210.8046421663443" text-anchor="end" dy=".35em" style="font-style: normal; font-variant: normal; font-weight: normal; font-size: 11px; line-height: normal; font-family: sans-serif; fill: rgb(0, 0, 0); opacity: 1;">16</text><text x="-9" y="188.75435203094779" text-anchor="end" dy=".35em" style="font-style: normal; font-variant: normal; font-weight: normal; font-size: 11px; line-height: normal; font-family: sans-serif; fill: rgb(0, 0, 0); opacity: 1;">18</text><text x="-9" y="166.70406189555126" text-anchor="end" dy=".35em" style="font-style: normal; font-variant: normal; font-weight: normal; font-size: 11px; line-height: normal; font-family: sans-serif; fill: rgb(0, 0, 0); opacity: 1;">20</text><text x="-9" y="144.65377176015474" text-anchor="end" dy=".35em" style="font-style: normal; font-variant: normal; font-weight: normal; font-size: 11px; line-height: normal; font-family: sans-serif; fill: rgb(0, 0, 0); opacity: 1;">22</text><text x="-9" y="122.60348162475825" text-anchor="end" dy=".35em" style="font-style: normal; font-variant: normal; font-weight: normal; font-size: 11px; line-height: normal; font-family: sans-serif; fill: rgb(0, 0, 0); opacity: 1;">24</text><text x="-9" y="100.55319148936172" text-anchor="end" dy=".35em" style="font-style: normal; font-variant: normal; font-weight: normal; font-size: 11px; line-height: normal; font-family: sans-serif; fill: rgb(0, 0, 0); opacity: 1;">26</text><text x="-9" y="78.50290135396523" text-anchor="end" dy=".35em" style="font-style: normal; font-variant: normal; font-weight: normal; font-size: 11px; line-height: normal; font-family: sans-serif; fill: rgb(0, 0, 0); opacity: 1;">28</text><text x="-9" y="56.452611218568705" text-anchor="end" dy=".35em" style="font-style: normal; font-variant: normal; font-weight: normal; font-size: 11px; line-height: normal; font-family: sans-serif; fill: rgb(0, 0, 0); opacity: 1;">30</text><text x="-9" y="34.40232108317218" text-anchor="end" dy=".35em" style="font-style: normal; font-variant: normal; font-weight: normal; font-size: 11px; line-height: normal; font-family: sans-serif; fill: rgb(0, 0, 0); opacity: 1;">32</text><text x="-9" y="12.352030947775688" text-anchor="end" dy=".35em" style="font-style: normal; font-variant: normal; font-weight: normal; font-size: 11px; line-height: normal; font-family: sans-serif; fill: rgb(0, 0, 0); opacity: 1;">34</text></g><g id="g335" style="pointer-events: none;"><path transform="translate(0.5,0.5)" d="M-6,0H0V285H-6" style="fill: none; stroke: rgb(0, 0, 0); stroke-width: 1px;"></path></g><g id="g336"><text x="-35" y="142" text-anchor="middle" transform="rotate(-90 -35,142)" dy=".35em" style="font-weight: bold; font-style: normal; font-variant: normal; font-size: 11px; line-height: normal; font-family: sans-serif; fill: rgb(0, 0, 0);">mpg</text></g></g></g><g id="g337"><path transform="translate(136.24683294205155,155.17891682785302)" d="M0,3.989422804014327A3.989422804014327,3.989422804014327 0 1,1 0,-3.989422804014327A3.989422804014327,3.989422804014327 0 1,1 0,3.989422804014327Z" style="fill: rgb(0, 0, 0);"></path><path transform="translate(162.9198530950001,155.17891682785302)" d="M0,3.989422804014327A3.989422804014327,3.989422804014327 0 1,1 0,-3.989422804014327A3.989422804014327,3.989422804014327 0 1,1 0,3.989422804014327Z" style="fill: rgb(0, 0, 0);"></path><path transform="translate(104.86680923270029,135.33365570599614)" d="M0,3.989422804014327A3.989422804014327,3.989422804014327 0 1,1 0,-3.989422804014327A3.989422804014327,3.989422804014327 0 1,1 0,3.989422804014327Z" style="fill: rgb(0, 0, 0);"></path><path transform="translate(198.48387996559816,150.76885880077373)" d="M0,3.989422804014327A3.989422804014327,3.989422804014327 0 1,1 0,-3.989422804014327A3.989422804014327,3.989422804014327 0 1,1 0,3.989422804014327Z" style="fill: rgb(0, 0, 0);"></path><path transform="translate(222.0188977476116,180.536750483559)" d="M0,3.989422804014327A3.989422804014327,3.989422804014327 0 1,1 0,-3.989422804014327A3.989422804014327,3.989422804014327 0 1,1 0,3.989422804014327Z" style="fill: rgb(0, 0, 0);"></path><path transform="translate(224.11089932823504,187.15183752417795)" d="M0,3.989422804014327A3.989422804014327,3.989422804014327 0 1,1 0,-3.989422804014327A3.989422804014327,3.989422804014327 0 1,1 0,3.989422804014327Z" style="fill: rgb(0, 0, 0);"></path><path transform="translate(235.61690802166382,229.04738878143132)" d="M0,3.989422804014327A3.989422804014327,3.989422804014327 0 1,1 0,-3.989422804014327A3.989422804014327,3.989422804014327 0 1,1 0,3.989422804014327Z" style="fill: rgb(0, 0, 0);"></path><path transform="translate(195.86887798981888,117.69342359767893)" d="M0,3.989422804014327A3.989422804014327,3.989422804014327 0 1,1 0,-3.989422804014327A3.989422804014327,3.989422804014327 0 1,1 0,3.989422804014327Z" style="fill: rgb(0, 0, 0);"></path><path transform="translate(191.68487482857205,135.33365570599614)" d="M0,3.989422804014327A3.989422804014327,3.989422804014327 0 1,1 0,-3.989422804014327A3.989422804014327,3.989422804014327 0 1,1 0,3.989422804014327Z" style="fill: rgb(0, 0, 0);"></path><path transform="translate(222.0188977476116,175.0241779497099)" d="M0,3.989422804014327A3.989422804014327,3.989422804014327 0 1,1 0,-3.989422804014327A3.989422804014327,3.989422804014327 0 1,1 0,3.989422804014327Z" style="fill: rgb(0, 0, 0);"></path><path transform="translate(222.0188977476116,190.45938104448743)" d="M0,3.989422804014327A3.989422804014327,3.989422804014327 0 1,1 0,-3.989422804014327A3.989422804014327,3.989422804014327 0 1,1 0,3.989422804014327Z" style="fill: rgb(0, 0, 0);"></path><path transform="translate(287.91694753724926,205.89458413926502)" d="M0,3.989422804014327A3.989422804014327,3.989422804014327 0 1,1 0,-3.989422804014327A3.989422804014327,3.989422804014327 0 1,1 0,3.989422804014327Z" style="fill: rgb(0, 0, 0);"></path><path transform="translate(252.35292066665116,195.97195357833655)" d="M0,3.989422804014327A3.989422804014327,3.989422804014327 0 1,1 0,-3.989422804014327A3.989422804014327,3.989422804014327 0 1,1 0,3.989422804014327Z" style="fill: rgb(0, 0, 0);"></path><path transform="translate(257.5829246182097,219.1247582205029)" d="M0,3.989422804014327A3.989422804014327,3.989422804014327 0 1,1 0,-3.989422804014327A3.989422804014327,3.989422804014327 0 1,1 0,3.989422804014327Z" style="fill: rgb(0, 0, 0);"></path><path transform="translate(411.34504079403075,272.04545454545456)" d="M0,3.989422804014327A3.989422804014327,3.989422804014327 0 1,1 0,-3.989422804014327A3.989422804014327,3.989422804014327 0 1,1 0,3.989422804014327Z" style="fill: rgb(0, 0, 0);"></path><path transform="translate(429.5454545454545,272.04545454545456)" d="M0,3.989422804014327A3.989422804014327,3.989422804014327 0 1,1 0,-3.989422804014327A3.989422804014327,3.989422804014327 0 1,1 0,3.989422804014327Z" style="fill: rgb(0, 0, 0);"></path><path transform="translate(421.28204830199195,224.63733075435204)" d="M0,3.989422804014327A3.989422804014327,3.989422804014327 0 1,1 0,-3.989422804014327A3.989422804014327,3.989422804014327 0 1,1 0,3.989422804014327Z" style="fill: rgb(0, 0, 0);"></path><path transform="translate(92.31479974895981,29.492263056092924)" d="M0,3.989422804014327A3.989422804014327,3.989422804014327 0 1,1 0,-3.989422804014327A3.989422804014327,3.989422804014327 0 1,1 0,3.989422804014327Z" style="fill: rgb(0, 0, 0);"></path><path transform="translate(31.12375351572487,51.54255319148942)" d="M0,3.989422804014327A3.989422804014327,3.989422804014327 0 1,1 0,-3.989422804014327A3.989422804014327,3.989422804014327 0 1,1 0,3.989422804014327Z" style="fill: rgb(0, 0, 0);"></path><path transform="translate(54.13577090258244,12.954545454545496)" d="M0,3.989422804014327A3.989422804014327,3.989422804014327 0 1,1 0,-3.989422804014327A3.989422804014327,3.989422804014327 0 1,1 0,3.989422804014327Z" style="fill: rgb(0, 0, 0);"></path><path transform="translate(120.03382069222005,149.6663442940039)" d="M0,3.989422804014327A3.989422804014327,3.989422804014327 0 1,1 0,-3.989422804014327A3.989422804014327,3.989422804014327 0 1,1 0,3.989422804014327Z" style="fill: rgb(0, 0, 0);"></path><path transform="translate(230.3869040701053,215.81721470019343)" d="M0,3.989422804014327A3.989422804014327,3.989422804014327 0 1,1 0,-3.989422804014327A3.989422804014327,3.989422804014327 0 1,1 0,3.989422804014327Z" style="fill: rgb(0, 0, 0);"></path><path transform="translate(221.49589735245576,219.1247582205029)" d="M0,3.989422804014327A3.989422804014327,3.989422804014327 0 1,1 0,-3.989422804014327A3.989422804014327,3.989422804014327 0 1,1 0,3.989422804014327Z" style="fill: rgb(0, 0, 0);"></path><path transform="translate(263.8589293600799,240.07253384912957)" d="M0,3.989422804014327A3.989422804014327,3.989422804014327 0 1,1 0,-3.989422804014327A3.989422804014327,3.989422804014327 0 1,1 0,3.989422804014327Z" style="fill: rgb(0, 0, 0);"></path><path transform="translate(264.3819297552358,175.0241779497099)" d="M0,3.989422804014327A3.989422804014327,3.989422804014327 0 1,1 0,-3.989422804014327A3.989422804014327,3.989422804014327 0 1,1 0,3.989422804014327Z" style="fill: rgb(0, 0, 0);"></path><path transform="translate(64.59577880569954,85.72050290135397)" d="M0,3.989422804014327A3.989422804014327,3.989422804014327 0 1,1 0,-3.989422804014327A3.989422804014327,3.989422804014327 0 1,1 0,3.989422804014327Z" style="fill: rgb(0, 0, 0);"></path><path transform="translate(86.03879500708956,100.05319148936172)" d="M0,3.989422804014327A3.989422804014327,3.989422804014327 0 1,1 0,-3.989422804014327A3.989422804014327,3.989422804014327 0 1,1 0,3.989422804014327Z" style="fill: rgb(0, 0, 0);"></path><path transform="translate(20.45454545454544,51.54255319148942)" d="M0,3.989422804014327A3.989422804014327,3.989422804014327 0 1,1 0,-3.989422804014327A3.989422804014327,3.989422804014327 0 1,1 0,3.989422804014327Z" style="fill: rgb(0, 0, 0);"></path><path transform="translate(193.77687640919547,212.50967117988392)" d="M0,3.989422804014327A3.989422804014327,3.989422804014327 0 1,1 0,-3.989422804014327A3.989422804014327,3.989422804014327 0 1,1 0,3.989422804014327Z" style="fill: rgb(0, 0, 0);"></path><path transform="translate(151.93684479672717,169.51160541586074)" d="M0,3.989422804014327A3.989422804014327,3.989422804014327 0 1,1 0,-3.989422804014327A3.989422804014327,3.989422804014327 0 1,1 0,3.989422804014327Z" style="fill: rgb(0, 0, 0);"></path><path transform="translate(235.61690802166382,221.32978723404256)" d="M0,3.989422804014327A3.989422804014327,3.989422804014327 0 1,1 0,-3.989422804014327A3.989422804014327,3.989422804014327 0 1,1 0,3.989422804014327Z" style="fill: rgb(0, 0, 0);"></path><path transform="translate(152.98284558703887,150.76885880077373)" d="M0,3.989422804014327A3.989422804014327,3.989422804014327 0 1,1 0,-3.989422804014327A3.989422804014327,3.989422804014327 0 1,1 0,3.989422804014327Z" style="fill: rgb(0, 0, 0);"></path></g><g id="g338"><path d="M20.45454545454544,32.92138814342556L25.632911392404644,37.343659292592776L30.811277330264865,41.822450358193805L35.98964326812405,46.35664518394168L41.16800920598429,50.94512761354392L46.346375143843474,55.58678149071133L51.52474108170265,60.28049065915582L56.70310701956287,65.02513896258702L61.88147295742207,69.81961024471457L67.0598388952823,74.69346227876966L72.2382048331415,79.82621813203176L77.41657077100066,85.19507138831949L82.59493670886087,90.73716789466539L87.77330264672008,96.38965349810408L92.9516685845803,102.08967404566806L98.1300345224395,107.7743753843919L103.30840046029867,113.38090336130932L108.48676639815889,118.84640382345262L113.66513233601808,124.10802261785543L118.84349827387832,129.1029055915535L124.02186421173751,133.6219684222271L129.20023014959776,137.38599890227732L134.37859608745694,140.54209707712246L139.5569620253161,143.25237113412834L144.7353279631763,145.67892926066068L149.91369390103551,147.9838796440851L155.09205983889575,150.32933047176743L160.27042577675496,152.87738993107334L165.4487917146141,155.69339726187448L170.62715765247438,158.311794934356L175.8055235903335,160.7388255735722L180.98388952819377,163.08467609646598L186.16225546605295,165.45953341998137L191.34062140391217,167.97358446106338L196.51898734177237,170.737016136656L201.69735327963153,173.95301995404344L206.87571921749176,177.8421017563827L212.05408515535098,182.00306523572635L217.23245109321016,185.98651402250647L222.4108170310704,189.34691894410702L227.58918296892958,192.43726448059616L232.76754890678978,195.53077907330857L237.94591484464897,198.40765282374372L243.12428078250818,201.2906078880976L248.3026467203684,204.15732234449223L253.4810126582276,206.90525582680277L258.65937859608783,209.43186796890996L263.837744533947,211.63461840469108L269.0161104718062,213.59220828378693L274.1944764096664,215.53118984547007L279.3728423475256,217.45196384230422L284.5512082853858,219.3526170156399L289.72957422324504,221.23123610682552L294.9079401611053,223.08590785721154L300.0863060989645,224.9147190081485L305.2646720368236,226.715756300987L310.4430379746839,228.48710647707753L315.62140391254303,230.2268562777685L320.7997698504032,231.93309244441033L325.97813578826236,233.60390171835365L331.15650172612163,235.23737084094898L336.3348676639818,236.83158655354578L341.513233601841,238.38463559749457L346.69159953970126,239.89460471414478L351.86996547756047,241.35958064484697L357.0483314154197,242.77765013095166L362.22669735327986,244.1468999138083L367.4050632911391,245.46541673476636L372.5834292289993,246.73128733517746L377.7617951668584,247.942598456391L382.9401611047176,249.09743683975756L388.11852704257785,250.19388922662552L393.29689298043706,251.23004235834756L398.4752589182973,252.20398297627202L403.6536248561565,253.11379782174836L408.83199079401567,253.95757363612933L414.0103567318759,254.73339716076214L419.1887226697351,255.43935513699847L424.36708860759535,256.07353430618883L429.5454545454545,256.63402140968157" style="fill: rgba(0, 0, 0, 0); stroke: rgb(0, 0, 0); stroke-width: 2px;"></path></g></g></g></g></svg>